# xmcd
#
# Track frame offsets: 
#        150
#        25745
#        48310
#        76937
#        103872
#        133120
#
# Disc length: 2158 seconds
#
# Revision: 8
# Processed by: cddbd v1.5.2PL0 Copyright (c) Steve Scherf et al.
# Submitted via: ExactAudioCopy v1.0b3
#
DISCID=45086c06,51086c06
DTITLE=Nightmares On Wax featuring De La Soul - Sound Of N.O.W
DYEAR=2000
DGENRE=Drum and Bass
TTITLE0=Keep On (86' Init Mix)
TTITLE1=Finer (Alex Gopher mix)
TTITLE2=Morse
TTITLE3=Keep On
TTITLE4=What Im Feelin (Rea and Christian mix)
TTITLE5=Dreddoverboard (DJ Food mix)
EXTD=YEAR: 2000
EXTT0=
EXTT1=
EXTT2=
EXTT3=
EXTT4=
EXTT5=
PLAYORDER=
